<?xml version="1.0" encoding="UTF-8"?>
<!DOCTYPE svg  PUBLIC '-//W3C//DTD SVG 1.1//EN'  'http://www.w3.org/Graphics/SVG/1.1/DTD/svg11.dtd'>
<svg clip-rule="evenodd" fill-rule="evenodd" stroke-linejoin="round" stroke-miterlimit="2" version="1.1" viewBox="0 0 200 89" xml:space="preserve" xmlns="http://www.w3.org/2000/svg">
    <g transform="matrix(.24 0 0 .24 -118.4 -148.4)">
        <g transform="matrix(1.0015 0 0 1.0038 -1.5518 -3.4512)">
            <rect x="494.17" y="619.42" width="829.19" height="366.4" fill="none"/>
            <g transform="matrix(.90566 0 0 2.9878 -2160.3 876.9)">
                <g transform="matrix(1.0063 0 0 .29314 8622.7 -288.92)">
                    <g transform="matrix(.61158 0 0 .63491 -8009.6 -1434.2)">
                        <path d="m4842.2 3552.2 59.18-165.65c2.74-8.79 6.45-15.65 11.11-20.59 4.67-4.94 9.61-8.16 14.82-9.67 5.22-1.51 10.3-1.51 15.23 0 4.95 1.51 8.99 4.25 12.15 8.23 0.63 0.79 27.87 27.31 30 30 3.16 3.98 5.14 9.13 5.97 15.44 0.82 6.31-0.41 13.45-3.71 21.41l-10.77 31.51c2.78 0.7 5.5 1.6 8.15 2.71 7.27 3.01 13.58 7.13 18.94 12.35 1.85 1.81 28.46 28.5 30 30 5.35 5.21 9.53 11.38 12.55 18.52s4.53 14.82 4.53 23.05c0 7.14-1.24 14.55-3.71 22.23l-23.46 66.39c0.5-0.49 0.99-0.99 1.49-1.5 4.67-4.79 9.17-10.83 13.51-18.14 0.88-4.18 2.21-8.49 3.99-12.94l32.93-91.39c3.57-9.33 8.37-17.63 14.41-24.9 6.04-7.28 12.97-13.38 20.79-18.32s16.26-8.72 25.32-11.32c9.05-2.61 18.25-3.91 27.58-3.91 10.42 0 20.44 1.64 30.05 4.94 9.6 3.29 18.11 7.95 25.52 13.99 3.66 2.98 26.95 26.28 29.87 29.9l0.13 0.1c7.41 6.04 13.31 13.38 17.7 22.03 4.39 8.64 6.59 18.31 6.59 29.02 0 9.05-1.92 18.93-5.76 29.64-5.49 15.09-11.26 30.74-17.29 46.93-6.04 16.19-11.81 31.97-17.29 47.34-3.3 8.78-7.83 16.53-13.59 23.26-5.76 6.72-12.49 12.42-20.17 17.08-7.68 4.67-16.05 8.23-25.11 10.71-9.06 2.46-18.25 3.7-27.58 3.7-10.43 0-20.45-1.51-30.06-4.53-9.6-3.02-18.11-7.41-25.52-13.17-3.11-2.42-5.96-5.09-8.54-8-0.31 0.27-0.62 0.53-0.93 0.79-9.88 8.37-19.96 14.27-30.25 17.71-10.3 3.43-20.38 5.14-30.26 5.14-8.78 0-17.22-1.23-25.32-3.7-8.09-2.47-15.3-6.18-21.61-11.12-3.62-2.83-33.84-32.11-36.94-36.48-3.21-3.56-5.98-7.58-8.29-12.04-3.84-7.41-5.76-15.92-5.76-25.53 0-8.23 1.64-17.29 4.94-27.17v0.42l21.55-61.37c-3.64 3.96-6.87 8.48-9.67 13.56l-49.4 138.73c-4.11 10.98-10.01 18.18-17.7 21.61-7.68 3.43-14.96 3.91-21.82 1.45-5.76-2.08-10.46-6.05-14.1-11.9-0.86-0.5-1.69-1.04-2.49-1.64-7.39 3.66-15.03 6.67-22.93 9.01-14.82 4.39-29.77 6.58-44.87 6.58-15.09 0-28.88-2.05-41.37-6.17s-23.19-9.74-32.11-16.88c-2.89-2.31-5.57-4.77-8.03-7.38-2.44 2.5-4.91 4.82-7.41 6.97-9.88 8.51-19.96 14.47-30.26 17.91-10.29 3.43-20.51 5.14-30.66 5.14-9.61 0-18.6-1.37-26.97-4.12-8.37-2.74-15.78-6.72-22.23-11.93-2.14-1.74-4.14-3.61-5.98-5.6-17.19 14.43-35.57 21.65-55.15 21.65-8.51 0-16.53-1.44-24.08-4.32s-14.2-6.86-19.97-11.94c-2.61-2.3-24.58-23.75-26-25-3.12-2.75-5.89-5.83-8.29-9.23-3.77-4.17-6.87-8.93-9.29-14.29-3.3-7.28-4.94-15.44-4.94-24.5v-0.84c-5.71 12.72-12.45 23.9-20.23 33.52-10.97 13.58-23.19 24.63-36.63 33.14-13.45 8.5-27.58 14.68-42.41 18.52-14.81 3.84-29.36 5.76-43.63 5.76-15.09 0-29.09-1.85-41.99-5.55-12.9-3.71-24.08-9.06-33.55-16.06-5.09-3.75-9.59-7.93-13.53-12.52-5.78 6.24-11.84 11.92-18.17 17.05-13.03 10.57-26.83 19.21-41.37 25.93-14.55 6.73-29.23 12.42-44.05 17.09-2.44 6.89-4.93 13.87-7.47 20.94 12.56-6.51 27.23-12.04 44.01-16.59 22.28-6.04 46.29-10.94 72.04-14.7 26.54-3.96 54.56-6.93 84.07-8.91s59.31-3.37 89.42-4.16c29.9-0.79 59.46-1.24 88.67-1.34s56.49-0.05 81.84 0.15 48.08 0.49 68.18 0.89 36.1 0.59 47.98 0.59l414.02 0.9h54.21c18.32 0 35.95-0.65 52.88-1.94 16.93-1.28 32.58-3.36 46.94-6.23 14.36-2.88 26.49-7.13 36.39-12.78 9.9-5.64 17.08-13.02 21.53-22.13 4.46-9.11 4.11-22.71 2.23-33.86-2.21-13.19-16.07-35.22-15.52-45.24 0.49-9.05 2.45-10.42 6.02-12.4 3.56-1.98 7.27-2.82 11.14-2.52 3.86 0.3 7.47 1.43 10.84 3.41s25.94 24.56 27.72 27.73c1.59 2.57 3.67 6.09 6.24 10.54 2.58 4.46 5 9.56 7.28 15.3 2.28 5.75 4.11 12.08 5.5 19.02 1.38 6.93 1.78 14.06 1.19 21.39-2.18 20.79-8.57 37.52-19.17 50.2-10.59 12.67-25.99 22.43-46.19 29.26s-45.55 11.39-76.05 13.67c-30.5 2.27-66.84 3.41-109.03 3.41l-418.17-0.89c-12.28 0-28.42-0.2-48.42-0.59-20.01-0.4-42.63-0.7-67.88-0.89-25.26-0.2-52.34-0.25-81.25-0.15-28.92 0.1-58.23 0.54-87.94 1.33-29.9 0.99-59.26 2.43-88.08 4.31-28.81 1.88-55.9 4.71-81.25 8.47-25.94 3.76-48.47 8.37-67.58 13.81-19.11 5.45-34.21 11.74-45.3 18.87-4.36 2.77-9.06 3.61-14.11 2.52s-8.97-3.81-11.74-8.17c-0.59-0.92-14.56-14.31-15.88-15.35-4.01 9.71-8.84 18.21-14.51 25.49-6.72 8.65-14.27 15.85-22.64 21.61-8.37 5.77-17.43 10.02-27.17 12.77-9.74 2.74-19.69 4.11-29.84 4.11-12.08 0-22.85-1.78-32.32-5.35s-17.49-8.37-24.08-14.41c-2.48-2.27-4.74-4.68-6.79-7.24-1.1-0.89-2.18-1.81-3.21-2.76-2.48-2.27-4.74-4.68-6.79-7.24-1.1-0.89-2.18-1.81-3.21-2.76-0.21-0.19-0.42-0.39-0.63-0.58-1.89-1.39-3.68-2.87-5.37-4.42-3.29-3.01-6.2-6.28-8.73-9.8-4.34-4.9-7.84-10.36-10.5-16.4-3.57-8.09-5.35-16.53-5.35-25.32 0-6.31 0.82-12.76 2.46-19.34 2.75-9.06 7-16.74 12.77-23.06 5.76-6.31 12.55-11.8 20.37-16.46 7.83-4.67 16.61-8.65 26.35-11.94 9.74-3.3 19.97-6.45 30.67-9.47 6.04-1.65 11.39-2.95 16.06-3.91 4.66-0.96 9.05-2.06 13.17-3.29 4.11-1.24 8.09-2.61 11.94-4.12 3.84-1.51 8.09-3.78 12.76-6.79 5.76-16.2 11.66-33.07 17.7-50.64 6.04-17.56 12.01-35.13 17.91-52.69s11.73-34.72 17.49-51.46c5.77-16.74 11.25-32.52 16.47-47.34 1.92-5.76 5.01-10.5 9.26-14.2 4.26-3.71 8.92-6.25 14-7.62 5.07-1.37 10.08-1.58 15.02-0.62s9.13 3.3 12.56 7c1.03 1.12 28.05 27.9 30 30 3.43 3.71 5.56 8.85 6.38 15.44s-0.27 14.68-3.29 24.29l-16.88 48.57-10.81 30.6c3.06-4.56 5.92-9.44 8.58-14.65 0.76-3.1 1.66-6.21 2.69-9.31l24.29-70.39c3.57-10.16 8.37-19.14 14.41-26.97 6.04-7.82 12.9-14.4 20.58-19.76 7.69-5.35 15.99-9.33 24.91-11.93 8.92-2.61 17.9-3.91 26.96-3.91 11.53 0 22.09 1.78 31.7 5.35 9.6 3.56 17.77 8.44 24.49 14.61 2.47 2.27 28.97 29.05 30 30 6.73 6.18 11.94 13.45 15.65 21.82 1.45 3.29 2.62 6.7 3.51 10.22l12.39-33.43c-6.86-8.51-10.29-18.25-10.29-29.23 0-3.02 0.34-6.31 1.02-9.88 0.69-3.56 1.72-6.86 3.09-9.88 2.2-7.41 6.38-13.44 12.56-18.11 6.17-4.66 13.51-7 22.02-7 5.49 0 10.7 1.3 15.64 3.91s9.06 6.04 12.35 10.29c0.5 0.65 0.98 1.3 1.43 1.97 3.3 2.24 26.16 24.91 28.57 28.03 2.88 3.72 4.97 7.84 6.27 12.39 4.89 2.35 9.68 5.03 14.37 8.04 6.86 4.41 12.79 9.64 17.79 15.69 3.67 3.04 7 6.37 10 10 3.67 3.04 7 6.37 10 10 4.4 3.65 8.32 7.72 11.76 12.22 5.35 7 8.03 15.44 8.03 25.32 0 3.32-0.3 6.7-0.89 10.14 3.54-10.23 7.15-20.52 10.82-30.88 3.84-10.84 7.62-21.68 11.32-32.52 3.71-10.84 7.21-21.07 10.5-30.67 3.84-11.25 9.67-19.07 17.49-23.46 7.83-4.4 15.31-5.77 22.44-4.12 6.51 1.5 11.77 5.35 15.76 11.54 0.39 0.38 28.3 26.86 31.12 31.84 4.12 7.27 4.39 16.81 0.82 28.61l-38.48 109.84c1.71-1.55 3.44-3.29 5.19-5.23 4.94-5.49 9.95-12.69 15.02-21.61 0.13-0.23 0.26-0.46 0.39-0.69 0.52-7.62 2.1-15.42 4.76-23.39l23.47-69.16c3.56-10.71 8.43-20.04 14.61-27.99 6.18-7.96 13.04-14.48 20.58-19.56 7.55-5.08 15.65-8.85 24.29-11.32 8.65-2.47 17.36-3.7 26.14-3.7 11.25 0 21.48 2.46 30.67 7.41 7.65 4.11 14.06 9.45 19.24 16.03 3.73 2.93 7.07 6.27 10 10 3.73 2.93 19.39 18.69 22.99 24.14 5.63 8.5 9.06 18.25 10.29 29.22 0.18 1.57 0.3 3.15 0.36 4.75zm-547.4 88.12c-7.52 4.36-15.35 7.66-23.47 9.9-9.47 2.6-18.6 3.91-27.38 3.91-6.98 0-13.29-0.71-18.92-2.12-0.04-0.67-0.07-1.36-0.07-2.05 0-4.12 0.69-7.96 2.06-11.53l3.3-7.82c6.03 3.84 12.69 6.86 19.96 9.06 7.27 2.19 15.03 3.29 23.26 3.29 7.3 0 14.38-0.88 21.26-2.64zm456.88-73.39c0.95 1.34 1.98 2.56 3.11 3.68 2.37 3.72 5.35 6.68 8.94 8.89 1.91 2.13 4.11 3.91 6.59 5.35 2.56 4.28 5.89 7.62 10 10 3.53 5.91 8.54 10.01 15 12.3 7 2.47 14.55 1.98 22.64-1.44 2.33-0.99 4.52-2.33 6.56-4.04l-0.29 0.82c-2.52 4.13-5.21 7.96-8.07 11.5-7.41 9.19-15.23 16.67-23.46 22.43-8.23 5.77-16.67 9.95-25.32 12.56-8.64 2.61-16.81 3.91-24.49 3.91-5.89 0-11.27-0.6-16.15-1.82-0.25-1.69-0.37-3.44-0.37-5.23 0-4.39 0.82-9.33 2.47-14.82l22.84-64.09zm427.72-28.93c-1.24 0.65-2.48 1.4-3.7 2.25-5.35 3.71-9.54 9.67-12.55 17.91l-33.24 93.37c1.3-0.74 2.59-1.59 3.85-2.55 5.63-4.25 9.95-10.5 12.97-18.73l32.67-92.25zm-914.41 7.52c-2.49 2.06-4.64 4.59-6.47 7.58l0.05-0.04c2.66-1.93 4.8-4.44 6.42-7.54zm-152.49-133.18c-6.22-6.49-9.34-14.4-9.34-23.74 0-9.33 3.3-17.22 9.88-23.67 6.59-6.45 14.55-9.67 23.88-9.67s17.29 3.22 23.88 9.67c1.83 1.8 28.33 28.37 30 30 6.58 6.45 9.88 14.34 9.88 23.67 0 9.61-3.3 17.71-9.88 24.29-6.59 6.59-14.55 9.88-23.88 9.88s-17.29-3.29-23.88-9.88c-1.71-1.72-29.26-28.59-30.54-30.55zm496.06 0c-6.23-6.49-9.34-14.4-9.34-23.74 0-9.33 3.29-17.22 9.88-23.67 6.58-6.45 14.54-9.67 23.87-9.67 9.34 0 17.29 3.22 23.88 9.67 1.84 1.8 28.33 28.37 30 30 6.59 6.45 9.88 14.34 9.88 23.67 0 9.61-3.29 17.71-9.88 24.29-6.59 6.59-14.54 9.88-23.88 9.88-9.33 0-17.29-3.29-23.87-9.88-1.72-1.72-29.26-28.59-30.54-30.55z" fill="#1099fe" fill-rule="nonzero"/>
                    </g>
                    <g transform="matrix(.068249 0 0 .070852 -5119.4 1146.2)">
                        <g transform="matrix(3688.9 0 0 3688.9 -6324 -3402.3)">
                            <path d="m0.202-0.322-0.094 0.266c0.04-0.02 0.076-0.046 0.107-0.078 0.031-0.031 0.056-0.073 0.075-0.124 8e-3 -0.023 0.02-0.038 0.037-0.047 0.016-8e-3 0.032-0.011 0.047-8e-3s0.026 0.012 0.035 0.025 0.01 0.03 3e-3 0.051c-0.017 0.053-0.039 0.098-0.065 0.134-0.026 0.037-0.055 0.069-0.086 0.094-0.032 0.026-0.066 0.047-0.101 0.064-0.035 0.016-0.071 0.03-0.107 0.041-7e-3 0.021-0.015 0.042-0.022 0.063-8e-3 0.021-0.016 0.043-0.023 0.064-0.011 0.029-0.024 0.055-0.041 0.076-0.016 0.021-0.034 0.038-0.055 0.052-0.02 0.014-0.042 0.024-0.066 0.031-0.023 7e-3 -0.047 0.01-0.072 0.01-0.029 0-0.056-4e-3 -0.079-0.013s-0.042-0.02-0.058-0.035-0.028-0.032-0.037-0.051c-9e-3 -0.02-0.013-0.041-0.013-0.062 0-0.015 2e-3 -0.031 6e-3 -0.047 7e-3 -0.022 0.017-0.041 0.031-0.056s0.031-0.029 0.049-0.04c0.019-0.011 0.041-0.021 0.064-0.029 0.024-8e-3 0.049-0.016 0.075-0.023 0.015-4e-3 0.028-7e-3 0.039-9e-3 0.011-3e-3 0.022-5e-3 0.032-8e-3s0.02-7e-3 0.029-0.01c9e-3 -4e-3 0.02-0.01 0.031-0.017 0.014-0.039 0.028-0.08 0.043-0.123s0.029-0.085 0.044-0.128c0.014-0.043 0.028-0.084 0.042-0.125s0.027-0.079 0.04-0.115c5e-3 -0.014 0.012-0.026 0.023-0.035 0.01-9e-3 0.021-0.015 0.034-0.018 0.012-3e-3 0.024-4e-3 0.036-2e-3 0.012 3e-3 0.022 8e-3 0.031 0.017 8e-3 9e-3 0.013 0.022 0.015 0.038s-1e-3 0.036-8e-3 0.059l-0.041 0.118zm0.067-0.326c-0.023 0-0.042-8e-3 -0.058-0.024s-0.024-0.036-0.024-0.059 8e-3 -0.042 0.024-0.058c0.016-0.015 0.035-0.023 0.058-0.023s0.042 8e-3 0.058 0.023c0.016 0.016 0.024 0.035 0.024 0.058s-8e-3 0.043-0.024 0.059-0.035 0.024-0.058 0.024zm-0.388 0.79c-0.016 4e-3 -0.032 8e-3 -0.047 0.013s-0.029 0.01-0.042 0.016c-0.012 5e-3 -0.022 0.012-0.031 0.019s-0.015 0.014-0.019 0.023c-1e-3 3e-3 -2e-3 7e-3 -3e-3 0.011-1e-3 3e-3 -1e-3 7e-3 -1e-3 0.01 0 9e-3 3e-3 0.017 8e-3 0.023s0.014 9e-3 0.026 9e-3c0.015 0 0.029-5e-3 0.044-0.014 0.015-0.01 0.027-0.024 0.035-0.042l0.03-0.068z" fill="#fff" fill-rule="nonzero"/>
                        </g>
                        <g transform="matrix(3688.9 0 0 3688.9 -5376 -3402.3)">
                            <path d="m0.506-0.251c5e-3 -0.017 0.016-0.03 0.032-0.037 0.015-7e-3 0.031-0.01 0.047-8e-3 0.015 3e-3 0.028 0.01 0.038 0.021 9e-3 0.011 0.011 0.027 4e-3 0.047-0.017 0.048-0.038 0.089-0.065 0.121-0.027 0.033-0.056 0.06-0.089 0.081s-0.067 0.036-0.103 0.045-0.071 0.014-0.106 0.014c-0.037 0-0.071-4e-3 -0.102-0.013s-0.059-0.023-0.081-0.04c-0.024-0.017-0.042-0.037-0.055-0.061s-0.02-0.051-0.02-0.081c0-0.011 1e-3 -0.023 4e-3 -0.035 2e-3 -0.012 5e-3 -0.024 9e-3 -0.036l0.059-0.171c9e-3 -0.025 0.02-0.047 0.035-0.066s0.031-0.035 0.05-0.048 0.039-0.022 0.061-0.029c0.021-6e-3 0.043-9e-3 0.065-9e-3 0.028 0 0.054 4e-3 0.077 0.013s0.043 0.02 0.06 0.035c0.016 0.015 0.029 0.033 0.038 0.053 8e-3 0.021 0.013 0.043 0.013 0.067 0 0.017-3e-3 0.035-8e-3 0.055-7e-3 0.023-0.017 0.043-0.029 0.061-0.013 0.018-0.029 0.033-0.046 0.046s-0.036 0.022-0.057 0.029-0.043 0.011-0.066 0.011c-0.02 0-0.039-3e-3 -0.056-8e-3 -0.018-5e-3 -0.034-0.013-0.049-0.022l-8e-3 0.019c-3e-3 9e-3 -5e-3 0.018-5e-3 0.028 0 0.023 0.011 0.043 0.032 0.059s0.05 0.024 0.087 0.024c0.021 0 0.044-3e-3 0.067-0.01 0.023-6e-3 0.045-0.016 0.066-0.029s0.04-0.03 0.058-0.051c0.017-0.021 0.032-0.046 0.043-0.075zm-0.22-0.186c-0.011 0-0.022 4e-3 -0.033 0.012-0.011 9e-3 -0.02 0.021-0.026 0.036l-0.021 0.06c9e-3 5e-3 0.02 9e-3 0.033 0.011 0.012 2e-3 0.024 2e-3 0.036 0s0.023-7e-3 0.033-0.014c9e-3 -7e-3 0.016-0.017 0.02-0.03 3e-3 -7e-3 4e-3 -0.015 4e-3 -0.024 0-0.014-4e-3 -0.026-0.012-0.036-9e-3 -0.01-0.02-0.015-0.034-0.015z" fill="#fff" fill-rule="nonzero"/>
                        </g>
                        <g transform="matrix(3688.9 0 0 3688.9 -3627.4 -3402.3)">
                            <path d="m0.507-0.259c5e-3 -0.018 0.016-0.03 0.032-0.036 0.015-6e-3 0.031-7e-3 0.046-4e-3s0.028 0.011 0.038 0.022 0.012 0.025 6e-3 0.042c-0.029 0.085-0.067 0.15-0.114 0.196-0.048 0.047-0.098 0.07-0.153 0.07-0.021 0-0.04-3e-3 -0.058-0.01-0.019-7e-3 -0.035-0.017-0.049-0.03-0.014-0.012-0.025-0.027-0.033-0.045-8e-3 -0.017-0.012-0.037-0.012-0.059 0-0.019 4e-3 -0.041 0.012-0.064l0.044-0.122c4e-3 -0.012 5e-3 -0.022 2e-3 -0.03-3e-3 -7e-3 -8e-3 -0.014-0.015-0.019s-0.014-8e-3 -0.023-0.011-0.018-5e-3 -0.026-8e-3l-0.056 0.15c-6e-3 0.018-0.017 0.031-0.032 0.039-0.016 8e-3 -0.031 0.011-0.046 8e-3 -0.015-2e-3 -0.028-9e-3 -0.037-0.021-0.01-0.012-0.012-0.029-5e-3 -0.05l0.073-0.197c-0.017-0.021-0.025-0.044-0.025-0.071 0-7e-3 1e-3 -0.015 3e-3 -0.024 1e-3 -9e-3 4e-3 -0.017 7e-3 -0.024 5e-3 -0.018 0.015-0.033 0.031-0.044 0.015-0.011 0.032-0.017 0.053-0.017 0.013 0 0.026 3e-3 0.038 9e-3 0.012 7e-3 0.022 0.015 0.03 0.025 8e-3 0.011 0.014 0.022 0.017 0.035s2e-3 0.027-3e-3 0.041c0.014 4e-3 0.031 0.01 0.051 0.017 0.02 8e-3 0.039 0.018 0.058 0.03s0.035 0.026 0.048 0.043 0.019 0.038 0.019 0.062c0 9e-3 -1e-3 0.017-2e-3 0.026-2e-3 9e-3 -5e-3 0.019-8e-3 0.029l-0.059 0.164c-3e-3 7e-3 -4e-3 0.015-4e-3 0.022s2e-3 0.014 5e-3 0.018c3e-3 6e-3 9e-3 8e-3 0.016 8e-3 0.011 0 0.022-4e-3 0.033-0.013s0.023-0.021 0.034-0.036 0.023-0.032 0.034-0.053 0.021-0.043 0.03-0.068z" fill="#fff" fill-rule="nonzero"/>
                        </g>
                        <g transform="matrix(3688.9 0 0 3688.9 -1878.9 -3402.3)">
                            <path d="m0.269-0.648c-0.023 0-0.042-8e-3 -0.058-0.024s-0.024-0.036-0.024-0.059 8e-3 -0.042 0.024-0.058c0.016-0.015 0.035-0.023 0.058-0.023s0.042 8e-3 0.058 0.023c0.016 0.016 0.024 0.035 0.024 0.058s-8e-3 0.043-0.024 0.059-0.035 0.024-0.058 0.024zm-0.135 0.51c-2e-3 6e-3 -3e-3 0.011-3e-3 0.016 0 9e-3 4e-3 0.017 0.011 0.024s0.016 0.01 0.027 0.01c0.01 0 0.021-3e-3 0.032-9e-3 0.011-5e-3 0.023-0.015 0.035-0.028s0.024-0.031 0.037-0.053c0.012-0.021 0.024-0.048 0.036-0.081 7e-3 -0.019 0.018-0.031 0.034-0.038s0.032-9e-3 0.047-6e-3 0.028 0.011 0.037 0.022c9e-3 0.012 0.011 0.027 5e-3 0.045-0.017 0.052-0.037 0.095-0.059 0.129s-0.045 0.061-0.069 0.082-0.048 0.035-0.073 0.044c-0.025 8e-3 -0.05 0.012-0.075 0.012-0.023 0-0.045-3e-3 -0.065-0.01-0.021-7e-3 -0.039-0.016-0.054-0.029-0.016-0.013-0.028-0.028-0.038-0.047-9e-3 -0.018-0.013-0.039-0.013-0.062 0-9e-3 1e-3 -0.019 3e-3 -0.031 3e-3 -0.012 6e-3 -0.023 9e-3 -0.033 8e-3 -0.023 0.016-0.048 0.026-0.074 9e-3 -0.026 0.018-0.052 0.027-0.079 9e-3 -0.026 0.019-0.052 0.028-0.079 9e-3 -0.026 0.017-0.051 0.025-0.074 9e-3 -0.027 0.024-0.046 0.043-0.057s0.037-0.014 0.054-0.01 0.031 0.015 0.041 0.032c0.01 0.018 0.011 0.041 2e-3 0.07l-0.11 0.314z" fill="#fff" fill-rule="nonzero"/>
                        </g>
                        <g transform="matrix(3688.9 0 0 3688.9 -860.73 -3402.3)">
                            <path d="m0.484-0.265c6e-3 -0.018 0.017-0.03 0.033-0.036 0.015-6e-3 0.03-7e-3 0.045-3e-3s0.027 0.012 0.036 0.024c9e-3 0.013 0.011 0.028 4e-3 0.046-0.016 0.045-0.037 0.085-0.062 0.118s-0.054 0.061-0.085 0.083c-0.032 0.022-0.066 0.038-0.102 0.049s-0.072 0.016-0.109 0.016-0.07-5e-3 -0.1-0.015c-0.031-0.01-0.057-0.024-0.078-0.041-0.022-0.017-0.039-0.038-0.051-0.063-0.012-0.024-0.018-0.05-0.018-0.079 0-0.023 4e-3 -0.046 0.012-0.07l0.057-0.168c9e-3 -0.026 0.021-0.049 0.036-0.068s0.031-0.035 0.05-0.048c0.018-0.012 0.038-0.021 0.059-0.027s0.042-9e-3 0.063-9e-3c0.027 0 0.052 6e-3 0.075 0.018 0.022 0.012 0.04 0.028 0.054 0.049 0.013 0.021 0.021 0.044 0.025 0.071 3e-3 0.027-1e-3 0.055-0.012 0.085-0.011 0.029-0.027 0.048-0.046 0.056-0.02 9e-3 -0.038 0.01-0.055 4e-3s-0.03-0.017-0.039-0.034c-9e-3 -0.016-8e-3 -0.034 2e-3 -0.054 9e-3 -0.017 0.013-0.032 0.01-0.045s-0.012-0.02-0.027-0.021c-9e-3 -1e-3 -0.017 3e-3 -0.026 9e-3 -9e-3 7e-3 -0.015 0.017-0.02 0.03v-1e-3l-0.062 0.174c-4e-3 0.013-6e-3 0.025-6e-3 0.036 0 0.025 0.01 0.047 0.031 0.064 0.02 0.017 0.047 0.026 0.082 0.026 0.019 0 0.039-3e-3 0.06-0.01 0.021-6e-3 0.041-0.016 0.061-0.03s0.039-0.032 0.057-0.055c0.018-0.022 0.033-0.049 0.046-0.081z" fill="#fff" fill-rule="nonzero"/>
                        </g>
                        <g transform="matrix(3688.9 0 0 3688.9 788.22 -3402.3)">
                            <path d="m0.57-0.259c6e-3 -0.02 0.017-0.033 0.033-0.04s0.031-8e-3 0.047-5e-3c0.015 3e-3 0.027 0.011 0.036 0.023 9e-3 0.013 0.011 0.028 5e-3 0.045-0.018 0.052-0.038 0.095-0.06 0.129-0.022 0.035-0.045 0.062-0.069 0.082-0.024 0.021-0.048 0.035-0.073 0.044-0.025 8e-3 -0.05 0.012-0.074 0.012-0.021 0-0.042-3e-3 -0.061-9e-3 -0.02-6e-3 -0.038-0.015-0.053-0.027s-0.028-0.027-0.037-0.045-0.014-0.039-0.014-0.062c0-0.02 4e-3 -0.042 0.012-0.066v1e-3l0.072-0.205c3e-3 -5e-3 4e-3 -0.011 4e-3 -0.018 0-9e-3 -3e-3 -0.017-9e-3 -0.024-7e-3 -6e-3 -0.015-9e-3 -0.025-9e-3 -0.015 0-0.031 6e-3 -0.046 0.019-0.016 0.013-0.029 0.029-0.04 0.048l-0.12 0.337c-0.01 0.027-0.024 0.044-0.043 0.053-0.019 8e-3 -0.036 9e-3 -0.053 3e-3s-0.03-0.018-0.039-0.038c-9e-3 -0.018-9e-3 -0.042 1e-3 -0.07l0.234-0.655c7e-3 -0.021 0.016-0.038 0.027-0.05s0.023-0.02 0.036-0.024c0.013-3e-3 0.025-3e-3 0.037 0 0.012 4e-3 0.022 0.011 0.03 0.02 7e-3 0.01 0.012 0.023 0.014 0.038s-1e-3 0.033-9e-3 0.052l-0.054 0.158c0.02-9e-3 0.041-0.013 0.064-0.013 0.02 0 0.039 4e-3 0.057 0.011 0.017 7e-3 0.032 0.017 0.046 0.03 0.013 0.013 0.023 0.028 0.03 0.045s0.011 0.036 0.011 0.056c0 0.017-3e-3 0.035-9e-3 0.054l-0.082 0.232c-2e-3 4e-3 -3e-3 8e-3 -3e-3 0.013 0 7e-3 3e-3 0.014 9e-3 0.018 5e-3 6e-3 0.013 8e-3 0.022 8e-3 0.023 0 0.047-0.013 0.074-0.041 0.026-0.027 0.05-0.07 0.072-0.13z" fill="#fff" fill-rule="nonzero"/>
                        </g>
                        <g transform="matrix(3688.9 0 0 3688.9 2765.5 -3402.3)">
                            <path d="m0.084-0.426c9e-3 -0.023 0.02-0.043 0.035-0.061 0.015-0.017 0.032-0.032 0.051-0.044s0.039-0.021 0.061-0.028c0.022-6e-3 0.044-9e-3 0.067-9e-3 0.025 0 0.05 4e-3 0.073 0.012s0.044 0.019 0.062 0.034 0.032 0.032 0.043 0.053 0.016 0.045 0.016 0.071c0 0.022-5e-3 0.046-0.014 0.072-0.013 0.037-0.027 0.075-0.042 0.114s-0.029 0.078-0.042 0.115c-8e-3 0.021-0.019 0.04-0.033 0.056-0.014 0.017-0.03 0.031-0.049 0.042s-0.039 0.02-0.061 0.026-0.044 9e-3 -0.067 9e-3c-0.025 0-0.05-4e-3 -0.073-0.011s-0.044-0.018-0.062-0.032-0.032-0.031-0.043-0.052-0.016-0.044-0.016-0.071c0-0.011 1e-3 -0.023 3e-3 -0.036 2e-3 -0.012 6e-3 -0.025 0.011-0.038l0.08-0.222zm0.259 0.042c3e-3 -6e-3 4e-3 -0.013 4e-3 -0.02 0-0.013-5e-3 -0.023-0.014-0.032s-0.022-0.013-0.037-0.013c-0.014 0-0.027 5e-3 -0.04 0.013-0.013 9e-3 -0.024 0.024-0.031 0.044l-0.084 0.236c-2e-3 5e-3 -3e-3 9e-3 -4e-3 0.013-1e-3 5e-3 -1e-3 9e-3 -1e-3 0.012 0 0.014 4e-3 0.025 0.014 0.034 9e-3 9e-3 0.02 0.014 0.033 0.014 0.015 0 0.03-5e-3 0.044-0.016 0.013-0.01 0.024-0.025 0.031-0.045l0.085-0.24z" fill="#fff" fill-rule="nonzero"/>
                        </g>
                    </g>
                    <g transform="matrix(.61158 0 0 .63491 -7058.7 -232.99)">
                        <path d="m2488.2 1910.3c-2.78-4.36-3.62-9.01-2.53-13.96s3.81-8.81 8.17-11.59c14.86-9.5 33.42-17.28 55.7-23.32s46.3-10.94 72.04-14.7c26.54-3.96 54.56-6.93 84.07-8.91s59.32-3.37 89.42-4.16c29.91-0.79 59.46-1.24 88.68-1.34 29.21-0.1 56.49-0.05 81.84 0.15s48.08 0.49 68.18 0.89 36.09 0.59 47.97 0.59l414.02 0.9h54.22c18.32 0 35.94-0.65 52.88-1.94 16.93-1.28 32.57-3.36 46.93-6.23s26.49-7.13 36.39-12.78c9.91-5.64 17.09-13.02 21.54-22.13 4.46-9.11 4.11-22.71 2.23-33.87-2.22-13.18-16.07-35.21-15.53-45.23 0.5-9.05 2.46-10.42 6.02-12.4 3.57-1.98 7.28-2.82 11.14-2.52s7.48 1.43 10.85 3.41c3.36 1.98 5.94 4.56 7.72 7.73 1.58 2.57 3.66 6.09 6.24 10.54 2.57 4.46 5 9.56 7.28 15.3 2.27 5.75 4.11 12.08 5.49 19.02 1.39 6.93 1.78 14.06 1.19 21.38-2.18 20.8-8.56 37.53-19.16 50.21s-25.99 22.43-46.19 29.26c-20.21 6.83-45.56 11.39-76.06 13.67-30.49 2.27-66.83 3.41-109.02 3.41l-418.18-0.89c-12.28 0-28.42-0.2-48.42-0.59-20-0.4-42.63-0.7-67.88-0.89-25.25-0.2-52.33-0.25-81.25-0.15-28.91 0.1-58.22 0.54-87.93 1.33-29.91 0.99-59.27 2.43-88.08 4.31-28.82 1.88-55.9 4.71-81.25 8.47-25.95 3.76-48.47 8.37-67.58 13.81-19.12 5.45-34.22 11.74-45.31 18.87-4.35 2.77-9.06 3.61-14.11 2.52s-8.96-3.81-11.73-8.17z" fill="#fff" fill-rule="nonzero"/>
                    </g>
                </g>
                <g transform="matrix(.88583 0 0 .26788 -223.02 -588.36)">
                    <g transform="matrix(165.98 0 0 165.98 3994.1 2304)">
                        <path d="m0.113-0.394c0.022-0.024 0.048-0.042 0.078-0.056s0.063-0.021 0.098-0.021c0.033 0 0.063 6e-3 0.092 0.019 0.029 0.012 0.054 0.029 0.076 0.051 0.021 0.021 0.038 0.047 0.051 0.076 0.012 0.029 0.019 0.06 0.019 0.093s-7e-3 0.063-0.019 0.092c-0.013 0.029-0.03 0.055-0.051 0.076-0.022 0.022-0.047 0.039-0.076 0.051-0.029 0.013-0.059 0.019-0.092 0.019-0.035 0-0.068-7e-3 -0.098-0.021-0.03-0.013-0.056-0.032-0.078-0.056v0.209c0 9e-3 -3e-3 0.016-9e-3 0.022s-0.014 9e-3 -0.022 9e-3c-9e-3 0-0.017-3e-3 -0.023-9e-3s-9e-3 -0.013-9e-3 -0.022v-0.578c0-9e-3 3e-3 -0.016 9e-3 -0.022s0.014-9e-3 0.023-9e-3c8e-3 0 0.016 3e-3 0.022 9e-3s9e-3 0.013 9e-3 0.022v0.046zm0 0.162c0 0.024 5e-3 0.047 0.014 0.068s0.021 0.039 0.037 0.055 0.034 0.029 0.056 0.038c0.021 9e-3 0.044 0.014 0.069 0.014 0.024 0 0.047-5e-3 0.069-0.014 0.021-9e-3 0.039-0.022 0.055-0.038s0.029-0.034 0.038-0.055 0.013-0.044 0.013-0.068-4e-3 -0.047-0.013-0.069c-9e-3 -0.021-0.022-0.039-0.038-0.055s-0.034-0.029-0.055-0.038c-0.022-9e-3 -0.045-0.014-0.069-0.014-0.025 0-0.048 5e-3 -0.069 0.014s-0.04 0.022-0.056 0.038-0.028 0.034-0.037 0.055c-9e-3 0.022-0.014 0.045-0.014 0.069z" fill="#1099fe" fill-rule="nonzero"/>
                    </g>
                    <g transform="matrix(165.98 0 0 165.98 4085 2304)">
                        <path d="m0.469-0.204c9e-3 0 0.016-2e-3 0.022-8e-3 5e-3 -6e-3 8e-3 -0.013 8e-3 -0.022 0-0.033-7e-3 -0.063-0.019-0.092-0.013-0.029-0.03-0.054-0.052-0.076-0.021-0.021-0.046-0.038-0.075-0.05-0.03-0.012-0.06-0.019-0.093-0.019s-0.064 7e-3 -0.093 0.019c-0.029 0.013-0.054 0.03-0.075 0.051-0.022 0.022-0.039 0.047-0.052 0.076-0.012 0.029-0.018 0.059-0.018 0.092s6e-3 0.064 0.018 0.093c0.013 0.029 0.03 0.055 0.052 0.076 0.021 0.022 0.046 0.039 0.075 0.051 0.029 0.013 0.06 0.019 0.093 0.019 0.019 0 0.037-2e-3 0.053-5e-3 0.016-4e-3 0.031-9e-3 0.045-0.015s0.027-0.013 0.038-0.022c0.011-8e-3 0.022-0.017 0.031-0.027 7e-3 -7e-3 0.011-0.014 0.011-0.022s-2e-3 -0.015-6e-3 -0.021-8e-3 -0.01-0.014-0.012c-5e-3 -2e-3 -0.011-2e-3 -0.016-1e-3s-0.01 3e-3 -0.016 8e-3c-0.014 0.017-0.032 0.031-0.053 0.041-0.022 0.01-0.046 0.015-0.073 0.015-0.022 0-0.042-4e-3 -0.061-0.012-0.02-7e-3 -0.037-0.018-0.052-0.031s-0.027-0.029-0.037-0.047-0.016-0.038-0.019-0.059h0.378zm-0.379-0.053c1e-3 -0.021 7e-3 -0.041 0.017-0.06s0.022-0.035 0.038-0.049c0.015-0.014 0.032-0.025 0.052-0.033s0.041-0.012 0.064-0.012 0.044 4e-3 0.064 0.012 0.038 0.019 0.053 0.033c0.016 0.014 0.028 0.03 0.038 0.049s0.016 0.039 0.019 0.06h-0.345z" fill="#1099fe" fill-rule="nonzero"/>
                    </g>
                    <g transform="matrix(165.98 0 0 165.98 4171.5 2304)">
                        <path d="m0.157-0.471h0.066c9e-3 0 0.017 3e-3 0.023 9e-3s9e-3 0.014 9e-3 0.022c0 0.01-3e-3 0.017-9e-3 0.023s-0.014 9e-3 -0.023 9e-3h-0.066v0.377c0 9e-3 -4e-3 0.016-0.01 0.022s-0.013 9e-3 -0.022 9e-3 -0.016-3e-3 -0.022-9e-3 -9e-3 -0.013-9e-3 -0.022v-0.377h-0.055c-9e-3 0-0.016-3e-3 -0.022-9e-3s-9e-3 -0.014-9e-3 -0.023c0-8e-3 3e-3 -0.016 9e-3 -0.022s0.013-9e-3 0.022-9e-3h0.055v-0.138c0-9e-3 3e-3 -0.016 9e-3 -0.022s0.013-9e-3 0.022-9e-3 0.016 3e-3 0.022 9e-3 0.01 0.013 0.01 0.022v0.138z" fill="#1099fe" fill-rule="nonzero"/>
                    </g>
                    <g transform="matrix(165.98 0 0 165.98 4252.5 2304)">
                        <path d="m0.086-0.235s-1e-3 1e-3 -1e-3 2e-3v1e-3c0 1e-3 0 1e-3 1e-3 1e-3 0 0.023 4e-3 0.044 0.012 0.065 9e-3 0.021 0.021 0.039 0.036 0.055s0.032 0.028 0.053 0.038c0.02 0.01 0.043 0.014 0.067 0.014 0.022 1e-3 0.042-2e-3 0.062-9e-3s0.038-0.018 0.055-0.033c3e-3 -3e-3 7e-3 -5e-3 0.011-8e-3 3e-3 -2e-3 7e-3 -4e-3 0.011-5e-3s9e-3 -1e-3 0.014 0c4e-3 1e-3 9e-3 4e-3 0.014 8e-3 7e-3 7e-3 0.01 0.014 0.01 0.023s-4e-3 0.018-0.011 0.025c-0.02 0.02-0.045 0.036-0.073 0.047s-0.058 0.017-0.088 0.017c-0.033 0-0.063-7e-3 -0.092-0.019s-0.054-0.029-0.076-0.05c-0.021-0.021-0.038-0.046-0.051-0.075-0.012-0.028-0.018-0.059-0.018-0.092l1e-3 -3e-3c-1e-3 0-1e-3 -1e-3 -1e-3 -2e-3 0-0.032 6e-3 -0.063 0.018-0.092 0.013-0.029 0.03-0.054 0.051-0.075 0.022-0.022 0.047-0.039 0.076-0.051 0.029-0.013 0.059-0.019 0.092-0.019 0.03 0 0.06 5e-3 0.088 0.016 0.028 0.012 0.053 0.027 0.073 0.047 7e-3 8e-3 0.011 0.016 0.011 0.025s-3e-3 0.017-0.01 0.023c-5e-3 5e-3 -0.01 7e-3 -0.015 8e-3 -4e-3 1e-3 -9e-3 1e-3 -0.013 0s-8e-3 -2e-3 -0.011-5e-3c-4e-3 -2e-3 -8e-3 -4e-3 -0.011-7e-3 -0.017-0.015-0.035-0.026-0.055-0.033s-0.04-0.01-0.062-0.01c-0.024 0-0.046 5e-3 -0.066 0.015-0.021 9e-3 -0.039 0.022-0.054 0.038s-0.027 0.034-0.035 0.055c-9e-3 0.021-0.013 0.043-0.013 0.065z" fill="#1099fe" fill-rule="nonzero"/>
                    </g>
                    <g transform="matrix(165.98 0 0 165.98 4327.6 2304)">
                        <path d="m0.022-0.232c0-0.033 6e-3 -0.064 0.018-0.093 0.013-0.029 0.03-0.055 0.052-0.076 0.021-0.022 0.046-0.039 0.076-0.051 0.029-0.013 0.059-0.019 0.092-0.019s0.063 6e-3 0.092 0.018c0.029 0.013 0.054 0.03 0.075 0.051 0.022 0.021 0.039 0.046 0.051 0.074 0.013 0.029 0.019 0.06 0.02 0.092v0.203c0 9e-3 -3e-3 0.017-9e-3 0.023-6e-3 7e-3 -0.014 0.01-0.023 0.01s-0.016-3e-3 -0.022-0.01c-6e-3 -6e-3 -9e-3 -0.014-9e-3 -0.023v-0.043c-0.022 0.025-0.048 0.044-0.078 0.059s-0.062 0.023-0.097 0.023c-0.033 0-0.063-6e-3 -0.092-0.019-0.03-0.012-0.055-0.029-0.076-0.051-0.022-0.021-0.039-0.047-0.052-0.076-0.012-0.029-0.018-0.059-0.018-0.092zm0.063 0c0 0.024 4e-3 0.047 0.013 0.068s0.022 0.039 0.038 0.055c0.015 0.016 0.034 0.029 0.055 0.038s0.044 0.014 0.069 0.014 0.048-5e-3 0.069-0.014 0.04-0.022 0.056-0.038c0.015-0.016 0.028-0.034 0.037-0.055s0.013-0.044 0.013-0.068-4e-3 -0.047-0.013-0.069c-9e-3 -0.021-0.022-0.039-0.037-0.055-0.016-0.016-0.035-0.029-0.056-0.038s-0.044-0.014-0.069-0.014c-0.024 0-0.047 5e-3 -0.068 0.014-0.022 9e-3 -0.04 0.022-0.056 0.038s-0.029 0.034-0.038 0.055c-9e-3 0.022-0.013 0.045-0.013 0.069z" fill="#1099fe" fill-rule="nonzero"/>
                    </g>
                    <g transform="matrix(165.98 0 0 165.98 4418.6 2304)">
                        <path d="m0.113-0.388c0.023-0.025 0.05-0.046 0.082-0.061 0.031-0.015 0.065-0.022 0.102-0.022h4e-3c0.011 0 0.019 3e-3 0.025 9e-3 5e-3 6e-3 8e-3 0.013 8e-3 0.022s-3e-3 0.017-9e-3 0.023c-7e-3 6e-3 -0.015 8e-3 -0.024 8e-3h-4e-3c-0.025 0-0.049 5e-3 -0.071 0.015s-0.042 0.023-0.058 0.04c-0.017 0.017-0.03 0.036-0.04 0.059s-0.015 0.047-0.015 0.073v0.19c0 9e-3 -3e-3 0.017-9e-3 0.023s-0.013 9e-3 -0.022 9e-3 -0.016-3e-3 -0.022-9e-3c-7e-3 -6e-3 -0.01-0.014-0.01-0.023v-0.408c0-8e-3 3e-3 -0.016 0.01-0.022 6e-3 -6e-3 0.013-9e-3 0.022-9e-3s0.016 3e-3 0.022 9e-3 9e-3 0.014 9e-3 0.022v0.052z" fill="#1099fe" fill-rule="nonzero"/>
                    </g>
                    <g transform="matrix(165.98 0 0 165.98 4471.4 2304)">
                        <path d="m0.469-0.204c9e-3 0 0.016-2e-3 0.022-8e-3 5e-3 -6e-3 8e-3 -0.013 8e-3 -0.022 0-0.033-7e-3 -0.063-0.019-0.092-0.013-0.029-0.03-0.054-0.052-0.076-0.021-0.021-0.046-0.038-0.075-0.05-0.03-0.012-0.06-0.019-0.093-0.019s-0.064 7e-3 -0.093 0.019c-0.029 0.013-0.054 0.03-0.075 0.051-0.022 0.022-0.039 0.047-0.052 0.076-0.012 0.029-0.018 0.059-0.018 0.092s6e-3 0.064 0.018 0.093c0.013 0.029 0.03 0.055 0.052 0.076 0.021 0.022 0.046 0.039 0.075 0.051 0.029 0.013 0.06 0.019 0.093 0.019 0.019 0 0.037-2e-3 0.053-5e-3 0.016-4e-3 0.031-9e-3 0.045-0.015s0.027-0.013 0.038-0.022c0.011-8e-3 0.022-0.017 0.031-0.027 7e-3 -7e-3 0.011-0.014 0.011-0.022s-2e-3 -0.015-6e-3 -0.021-8e-3 -0.01-0.014-0.012c-5e-3 -2e-3 -0.011-2e-3 -0.016-1e-3s-0.01 3e-3 -0.016 8e-3c-0.014 0.017-0.032 0.031-0.053 0.041-0.022 0.01-0.046 0.015-0.073 0.015-0.022 0-0.042-4e-3 -0.061-0.012-0.02-7e-3 -0.037-0.018-0.052-0.031s-0.027-0.029-0.037-0.047-0.016-0.038-0.019-0.059h0.378zm-0.379-0.053c1e-3 -0.021 7e-3 -0.041 0.017-0.06s0.022-0.035 0.038-0.049c0.015-0.014 0.032-0.025 0.052-0.033s0.041-0.012 0.064-0.012 0.044 4e-3 0.064 0.012 0.038 0.019 0.053 0.033c0.016 0.014 0.028 0.03 0.038 0.049s0.016 0.039 0.019 0.06h-0.345z" fill="#1099fe" fill-rule="nonzero"/>
                    </g>
                </g>
                <g transform="matrix(.88583 0 0 .26788 -226.72 -589.48)">
                    <g transform="matrix(165.98 0 0 165.98 3994.1 2304)">
                        <path d="m0.113-0.394c0.022-0.024 0.048-0.042 0.078-0.056s0.063-0.021 0.098-0.021c0.033 0 0.063 6e-3 0.092 0.019 0.029 0.012 0.054 0.029 0.076 0.051 0.021 0.021 0.038 0.047 0.051 0.076 0.012 0.029 0.019 0.06 0.019 0.093s-7e-3 0.063-0.019 0.092c-0.013 0.029-0.03 0.055-0.051 0.076-0.022 0.022-0.047 0.039-0.076 0.051-0.029 0.013-0.059 0.019-0.092 0.019-0.035 0-0.068-7e-3 -0.098-0.021-0.03-0.013-0.056-0.032-0.078-0.056v0.209c0 9e-3 -3e-3 0.016-9e-3 0.022s-0.014 9e-3 -0.022 9e-3c-9e-3 0-0.017-3e-3 -0.023-9e-3s-9e-3 -0.013-9e-3 -0.022v-0.578c0-9e-3 3e-3 -0.016 9e-3 -0.022s0.014-9e-3 0.023-9e-3c8e-3 0 0.016 3e-3 0.022 9e-3s9e-3 0.013 9e-3 0.022v0.046zm0 0.162c0 0.024 5e-3 0.047 0.014 0.068s0.021 0.039 0.037 0.055 0.034 0.029 0.056 0.038c0.021 9e-3 0.044 0.014 0.069 0.014 0.024 0 0.047-5e-3 0.069-0.014 0.021-9e-3 0.039-0.022 0.055-0.038s0.029-0.034 0.038-0.055 0.013-0.044 0.013-0.068-4e-3 -0.047-0.013-0.069c-9e-3 -0.021-0.022-0.039-0.038-0.055s-0.034-0.029-0.055-0.038c-0.022-9e-3 -0.045-0.014-0.069-0.014-0.025 0-0.048 5e-3 -0.069 0.014s-0.04 0.022-0.056 0.038-0.028 0.034-0.037 0.055c-9e-3 0.022-0.014 0.045-0.014 0.069z" fill="#fff" fill-rule="nonzero"/>
                    </g>
                    <g transform="matrix(165.98 0 0 165.98 4085 2304)">
                        <path d="m0.469-0.204c9e-3 0 0.016-2e-3 0.022-8e-3 5e-3 -6e-3 8e-3 -0.013 8e-3 -0.022 0-0.033-7e-3 -0.063-0.019-0.092-0.013-0.029-0.03-0.054-0.052-0.076-0.021-0.021-0.046-0.038-0.075-0.05-0.03-0.012-0.06-0.019-0.093-0.019s-0.064 7e-3 -0.093 0.019c-0.029 0.013-0.054 0.03-0.075 0.051-0.022 0.022-0.039 0.047-0.052 0.076-0.012 0.029-0.018 0.059-0.018 0.092s6e-3 0.064 0.018 0.093c0.013 0.029 0.03 0.055 0.052 0.076 0.021 0.022 0.046 0.039 0.075 0.051 0.029 0.013 0.06 0.019 0.093 0.019 0.019 0 0.037-2e-3 0.053-5e-3 0.016-4e-3 0.031-9e-3 0.045-0.015s0.027-0.013 0.038-0.022c0.011-8e-3 0.022-0.017 0.031-0.027 7e-3 -7e-3 0.011-0.014 0.011-0.022s-2e-3 -0.015-6e-3 -0.021-8e-3 -0.01-0.014-0.012c-5e-3 -2e-3 -0.011-2e-3 -0.016-1e-3s-0.01 3e-3 -0.016 8e-3c-0.014 0.017-0.032 0.031-0.053 0.041-0.022 0.01-0.046 0.015-0.073 0.015-0.022 0-0.042-4e-3 -0.061-0.012-0.02-7e-3 -0.037-0.018-0.052-0.031s-0.027-0.029-0.037-0.047-0.016-0.038-0.019-0.059h0.378zm-0.379-0.053c1e-3 -0.021 7e-3 -0.041 0.017-0.06s0.022-0.035 0.038-0.049c0.015-0.014 0.032-0.025 0.052-0.033s0.041-0.012 0.064-0.012 0.044 4e-3 0.064 0.012 0.038 0.019 0.053 0.033c0.016 0.014 0.028 0.03 0.038 0.049s0.016 0.039 0.019 0.06h-0.345z" fill="#fff" fill-rule="nonzero"/>
                    </g>
                    <g transform="matrix(165.98 0 0 165.98 4171.5 2304)">
                        <path d="m0.157-0.471h0.066c9e-3 0 0.017 3e-3 0.023 9e-3s9e-3 0.014 9e-3 0.022c0 0.01-3e-3 0.017-9e-3 0.023s-0.014 9e-3 -0.023 9e-3h-0.066v0.377c0 9e-3 -4e-3 0.016-0.01 0.022s-0.013 9e-3 -0.022 9e-3 -0.016-3e-3 -0.022-9e-3 -9e-3 -0.013-9e-3 -0.022v-0.377h-0.055c-9e-3 0-0.016-3e-3 -0.022-9e-3s-9e-3 -0.014-9e-3 -0.023c0-8e-3 3e-3 -0.016 9e-3 -0.022s0.013-9e-3 0.022-9e-3h0.055v-0.138c0-9e-3 3e-3 -0.016 9e-3 -0.022s0.013-9e-3 0.022-9e-3 0.016 3e-3 0.022 9e-3 0.01 0.013 0.01 0.022v0.138z" fill="#fff" fill-rule="nonzero"/>
                    </g>
                    <g transform="matrix(165.98 0 0 165.98 4252.5 2304)">
                        <path d="m0.086-0.235s-1e-3 1e-3 -1e-3 2e-3v1e-3c0 1e-3 0 1e-3 1e-3 1e-3 0 0.023 4e-3 0.044 0.012 0.065 9e-3 0.021 0.021 0.039 0.036 0.055s0.032 0.028 0.053 0.038c0.02 0.01 0.043 0.014 0.067 0.014 0.022 1e-3 0.042-2e-3 0.062-9e-3s0.038-0.018 0.055-0.033c3e-3 -3e-3 7e-3 -5e-3 0.011-8e-3 3e-3 -2e-3 7e-3 -4e-3 0.011-5e-3s9e-3 -1e-3 0.014 0c4e-3 1e-3 9e-3 4e-3 0.014 8e-3 7e-3 7e-3 0.01 0.014 0.01 0.023s-4e-3 0.018-0.011 0.025c-0.02 0.02-0.045 0.036-0.073 0.047s-0.058 0.017-0.088 0.017c-0.033 0-0.063-7e-3 -0.092-0.019s-0.054-0.029-0.076-0.05c-0.021-0.021-0.038-0.046-0.051-0.075-0.012-0.028-0.018-0.059-0.018-0.092l1e-3 -3e-3c-1e-3 0-1e-3 -1e-3 -1e-3 -2e-3 0-0.032 6e-3 -0.063 0.018-0.092 0.013-0.029 0.03-0.054 0.051-0.075 0.022-0.022 0.047-0.039 0.076-0.051 0.029-0.013 0.059-0.019 0.092-0.019 0.03 0 0.06 5e-3 0.088 0.016 0.028 0.012 0.053 0.027 0.073 0.047 7e-3 8e-3 0.011 0.016 0.011 0.025s-3e-3 0.017-0.01 0.023c-5e-3 5e-3 -0.01 7e-3 -0.015 8e-3 -4e-3 1e-3 -9e-3 1e-3 -0.013 0s-8e-3 -2e-3 -0.011-5e-3c-4e-3 -2e-3 -8e-3 -4e-3 -0.011-7e-3 -0.017-0.015-0.035-0.026-0.055-0.033s-0.04-0.01-0.062-0.01c-0.024 0-0.046 5e-3 -0.066 0.015-0.021 9e-3 -0.039 0.022-0.054 0.038s-0.027 0.034-0.035 0.055c-9e-3 0.021-0.013 0.043-0.013 0.065z" fill="#fff" fill-rule="nonzero"/>
                    </g>
                    <g transform="matrix(165.98 0 0 165.98 4327.6 2304)">
                        <path d="m0.022-0.232c0-0.033 6e-3 -0.064 0.018-0.093 0.013-0.029 0.03-0.055 0.052-0.076 0.021-0.022 0.046-0.039 0.076-0.051 0.029-0.013 0.059-0.019 0.092-0.019s0.063 6e-3 0.092 0.018c0.029 0.013 0.054 0.03 0.075 0.051 0.022 0.021 0.039 0.046 0.051 0.074 0.013 0.029 0.019 0.06 0.02 0.092v0.203c0 9e-3 -3e-3 0.017-9e-3 0.023-6e-3 7e-3 -0.014 0.01-0.023 0.01s-0.016-3e-3 -0.022-0.01c-6e-3 -6e-3 -9e-3 -0.014-9e-3 -0.023v-0.043c-0.022 0.025-0.048 0.044-0.078 0.059s-0.062 0.023-0.097 0.023c-0.033 0-0.063-6e-3 -0.092-0.019-0.03-0.012-0.055-0.029-0.076-0.051-0.022-0.021-0.039-0.047-0.052-0.076-0.012-0.029-0.018-0.059-0.018-0.092zm0.063 0c0 0.024 4e-3 0.047 0.013 0.068s0.022 0.039 0.038 0.055c0.015 0.016 0.034 0.029 0.055 0.038s0.044 0.014 0.069 0.014 0.048-5e-3 0.069-0.014 0.04-0.022 0.056-0.038c0.015-0.016 0.028-0.034 0.037-0.055s0.013-0.044 0.013-0.068-4e-3 -0.047-0.013-0.069c-9e-3 -0.021-0.022-0.039-0.037-0.055-0.016-0.016-0.035-0.029-0.056-0.038s-0.044-0.014-0.069-0.014c-0.024 0-0.047 5e-3 -0.068 0.014-0.022 9e-3 -0.04 0.022-0.056 0.038s-0.029 0.034-0.038 0.055c-9e-3 0.022-0.013 0.045-0.013 0.069z" fill="#fff" fill-rule="nonzero"/>
                    </g>
                    <g transform="matrix(165.98 0 0 165.98 4418.6 2304)">
                        <path d="m0.113-0.388c0.023-0.025 0.05-0.046 0.082-0.061 0.031-0.015 0.065-0.022 0.102-0.022h4e-3c0.011 0 0.019 3e-3 0.025 9e-3 5e-3 6e-3 8e-3 0.013 8e-3 0.022s-3e-3 0.017-9e-3 0.023c-7e-3 6e-3 -0.015 8e-3 -0.024 8e-3h-4e-3c-0.025 0-0.049 5e-3 -0.071 0.015s-0.042 0.023-0.058 0.04c-0.017 0.017-0.03 0.036-0.04 0.059s-0.015 0.047-0.015 0.073v0.19c0 9e-3 -3e-3 0.017-9e-3 0.023s-0.013 9e-3 -0.022 9e-3 -0.016-3e-3 -0.022-9e-3c-7e-3 -6e-3 -0.01-0.014-0.01-0.023v-0.408c0-8e-3 3e-3 -0.016 0.01-0.022 6e-3 -6e-3 0.013-9e-3 0.022-9e-3s0.016 3e-3 0.022 9e-3 9e-3 0.014 9e-3 0.022v0.052z" fill="#fff" fill-rule="nonzero"/>
                    </g>
                    <g transform="matrix(165.98 0 0 165.98 4471.4 2304)">
                        <path d="m0.469-0.204c9e-3 0 0.016-2e-3 0.022-8e-3 5e-3 -6e-3 8e-3 -0.013 8e-3 -0.022 0-0.033-7e-3 -0.063-0.019-0.092-0.013-0.029-0.03-0.054-0.052-0.076-0.021-0.021-0.046-0.038-0.075-0.05-0.03-0.012-0.06-0.019-0.093-0.019s-0.064 7e-3 -0.093 0.019c-0.029 0.013-0.054 0.03-0.075 0.051-0.022 0.022-0.039 0.047-0.052 0.076-0.012 0.029-0.018 0.059-0.018 0.092s6e-3 0.064 0.018 0.093c0.013 0.029 0.03 0.055 0.052 0.076 0.021 0.022 0.046 0.039 0.075 0.051 0.029 0.013 0.06 0.019 0.093 0.019 0.019 0 0.037-2e-3 0.053-5e-3 0.016-4e-3 0.031-9e-3 0.045-0.015s0.027-0.013 0.038-0.022c0.011-8e-3 0.022-0.017 0.031-0.027 7e-3 -7e-3 0.011-0.014 0.011-0.022s-2e-3 -0.015-6e-3 -0.021-8e-3 -0.01-0.014-0.012c-5e-3 -2e-3 -0.011-2e-3 -0.016-1e-3s-0.01 3e-3 -0.016 8e-3c-0.014 0.017-0.032 0.031-0.053 0.041-0.022 0.01-0.046 0.015-0.073 0.015-0.022 0-0.042-4e-3 -0.061-0.012-0.02-7e-3 -0.037-0.018-0.052-0.031s-0.027-0.029-0.037-0.047-0.016-0.038-0.019-0.059h0.378zm-0.379-0.053c1e-3 -0.021 7e-3 -0.041 0.017-0.06s0.022-0.035 0.038-0.049c0.015-0.014 0.032-0.025 0.052-0.033s0.041-0.012 0.064-0.012 0.044 4e-3 0.064 0.012 0.038 0.019 0.053 0.033c0.016 0.014 0.028 0.03 0.038 0.049s0.016 0.039 0.019 0.06h-0.345z" fill="#fff" fill-rule="nonzero"/>
                    </g>
                </g>
            </g>
        </g>
    </g>
</svg>
