<?xml version="1.0" encoding="utf-8"?>
<!-- Generator: Adobe Illustrator 26.2.1, SVG Export Plug-In . SVG Version: 6.00 Build 0)  -->
<svg version="1.1" id="Layer_1" xmlns="http://www.w3.org/2000/svg" xmlns:xlink="http://www.w3.org/1999/xlink" x="0px" y="0px"
	 viewBox="0 0 213.6 45.2" style="enable-background:new 0 0 213.6 45.2;" xml:space="preserve">
<style type="text/css">
	.st0{clip-path:url(#SVGID_00000023242562833059509830000009772216377212898466_);}
	.st1{fill:#FFA400;}
	.st2{fill:#004876;}
	.st3{fill:none;stroke:#004876;stroke-width:1.883;stroke-miterlimit:10;}
	.st4{fill:#FFFFFF;}
	.st5{fill:#104875;}
</style>
<g>
	<defs>
		<rect id="SVGID_1_" width="213.6" height="45.2"/>
	</defs>
	<clipPath id="SVGID_00000072989122346487098640000010160535997665165193_">
		<use xlink:href="#SVGID_1_"  style="overflow:visible;"/>
	</clipPath>
	<g id="Group_3757" style="clip-path:url(#SVGID_00000072989122346487098640000010160535997665165193_);">
		<path id="Path_3863" class="st1" d="M52.9,3.6h9.2c5.4,0,8.6,3.2,8.6,7.8v0.1c0,5.3-4.1,8-9.1,8h-3.8v6.8h-5L52.9,3.6z M61.8,15
			c2.5,0,3.9-1.5,3.9-3.4v-0.1c0-2.2-1.5-3.4-4-3.4h-3.8V15H61.8z"/>
		<path id="Path_3864" class="st1" d="M74.4,3.6h17V8H79.3v4.6h10.6v4.4H79.3v4.8h12.2v4.4H74.4L74.4,3.6z"/>
		<path id="Path_3865" class="st1" d="M101.2,8.2h-6.9V3.6h18.7v4.6h-6.9v18.1h-5L101.2,8.2z"/>
		<path id="Path_3866" class="st2" d="M122.9,15L122.9,15c0.2-6.8,5.8-12,12.5-11.8c3.1,0.1,6,1.3,8.1,3.5l-3.2,3.7
			c-1.5-1.6-3.6-2.5-5.8-2.6c-3.8,0-6.5,3.2-6.5,7.1v0.1c0,3.9,2.7,7.1,6.5,7.1c2.6,0,4.2-1,5.9-2.7l3.2,3.2
			c-4.3,4.9-11.8,5.4-16.8,1.1C124.4,21.5,123,18.3,122.9,15"/>
		<path id="Path_3867" class="st2" d="M155.4,3.4h4.6l9.7,22.9h-5.2l-2.1-5.1h-9.5l-2.1,5.1h-5.1L155.4,3.4z M160.7,16.8l-3-7.4
			l-3,7.4H160.7z"/>
		<path id="Path_3868" class="st2" d="M173.2,3.6h10.3c2.4-0.2,4.8,0.7,6.6,2.3c1.3,1.4,2,3.3,1.9,5.2v0.1c0.2,3.2-1.8,6-4.8,7
			l5.5,8.1h-5.8L182,19h-3.9v7.3h-5L173.2,3.6z M183.2,14.6c2.4,0,3.8-1.3,3.8-3.2v-0.1c0-2.1-1.5-3.2-3.9-3.2h-4.9v6.5H183.2z"/>
		<path id="Path_3869" class="st2" d="M196.5,3.6h17V8h-12.1v4.6H212v4.4h-10.6v4.8h12.2v4.4h-17.2L196.5,3.6z"/>
		<rect id="Rectangle_950" x="87" y="37.1" class="st2" width="1.8" height="8.1"/>
		<path id="Path_3870" class="st2" d="M93.6,37.1h1.6l3.7,5v-5h1.7v8.1h-1.5L95.4,40v5.1h-1.7L93.6,37.1z"/>
		<path id="Path_3871" class="st2" d="M105,43.9l1-1.3c0.7,0.6,1.5,1,2.4,1c0.7,0,1.2-0.3,1.2-0.8v0c0-0.4-0.3-0.7-1.6-1
			c-1.6-0.4-2.7-0.9-2.7-2.5v0c0-1.4,1.2-2.5,2.6-2.4c0.1,0,0.2,0,0.2,0c1.1,0,2.1,0.3,3,1l-0.9,1.3c-0.6-0.5-1.3-0.7-2.1-0.8
			c-0.7,0-1,0.3-1,0.7v0c0,0.5,0.3,0.7,1.7,1.1c1.6,0.4,2.5,1,2.5,2.4v0c0,1.6-1.2,2.5-2.9,2.5C107.1,45.2,105.9,44.8,105,43.9"/>
		<path id="Path_3872" class="st2" d="M115.6,41.7v-4.6h1.8v4.6c0,1.3,0.7,2,1.7,2s1.7-0.7,1.7-1.9v-4.6h1.8v4.5
			c0,2.4-1.4,3.6-3.5,3.6S115.6,44,115.6,41.7"/>
		<path id="Path_3873" class="st2" d="M127.2,37.1h3.7c0.9-0.1,1.7,0.2,2.3,0.8c0.5,0.5,0.7,1.2,0.7,1.8v0c0.1,1.1-0.6,2.1-1.7,2.5
			l2,2.9h-2.1l-1.7-2.6H129v2.6h-1.8L127.2,37.1z M130.7,41c0.9,0,1.3-0.5,1.3-1.1v0c0-0.8-0.5-1.1-1.4-1.1H129V41H130.7z"/>
		<path id="Path_3874" class="st2" d="M141.1,37h1.6l3.4,8.1h-1.8l-0.7-1.8h-3.4l-0.7,1.8h-1.8L141.1,37z M142.9,41.7l-1.1-2.6
			l-1.1,2.6H142.9z"/>
		<path id="Path_3875" class="st2" d="M150.2,37.1h1.6l3.7,5v-5h1.7v8.1h-1.5l-3.9-5.1v5.1h-1.7V37.1z"/>
		<path id="Path_3876" class="st2" d="M161.7,41.1L161.7,41.1c0.1-2.4,2.1-4.3,4.4-4.2c1.1,0,2.1,0.5,2.9,1.2l-1.1,1.3
			c-0.5-0.6-1.3-0.9-2-0.9c-1.3,0-2.4,1.1-2.3,2.4c0,0,0,0,0,0.1v0c-0.1,1.3,0.9,2.4,2.2,2.5c0,0,0.1,0,0.1,0c0.8,0,1.6-0.4,2.1-0.9
			l1.1,1.1c-1.5,1.8-4.2,1.9-5.9,0.4C162.3,43.4,161.8,42.3,161.7,41.1"/>
		<path id="Path_3877" class="st2" d="M173.4,37.1h6v1.6h-4.3v1.6h3.8v1.6h-3.8v1.7h4.3v1.6h-6.1L173.4,37.1z"/>
		<line id="Line_97" class="st3" x1="71.8" y1="31.9" x2="194.7" y2="31.9"/>
		<path id="Path_3878" class="st4" d="M41.6,20.9c0,11.5-9.4,20.8-20.9,20.8C9.3,41.6,0,32.3,0,20.8C0,9.3,9.3,0,20.8,0
			C32.3,0,41.7,9.3,41.6,20.9C41.6,20.9,41.6,20.9,41.6,20.9"/>
		<path id="Path_3879" class="st1" d="M17.3,40.8c1-1.1,1.7-2.5,1.8-4c0.1-0.5,0.2-1,0.5-1.4c0.2-0.8,0.2-1.7,0.1-2.5
			c0-0.7,1.2-2.9,1.4-3.3s0.1-1.1,0.2-1.9c0.1-0.6,0.4-1.3,0.7-1.8c0.5-1,0.6-1.4,1.1-1.4c1.6,0,1.6,0.9,2.8,0.9
			c0.8-0.1,1.5-0.4,2-1.1c0.4,0.1,0.8,0.1,1.2,0.1c1.7,0,1.7-2.7,1.7-3.1c-0.1-0.8-0.2-1.5-0.1-2.3c0.3-0.5,0.4-1.1,0.2-1.7
			c-0.2-0.4-2.6-0.7-3.2-0.7s-1-1.7-1.5-2.2c-0.5-0.7-1.3-1.2-2.1-1.4c-2.2-0.2-4.3,0.1-6.3,0.9c-1.8,1-7.7,8.2-8.7,9
			c-0.9,0.6-1.9,1.1-2.9,1.4c-0.3,0.1-1.5,1-1.7,1c-0.6,0.1-1.1,0.3-1.6,0.5c-0.7,0.3-1.5,0.5-2.3,0.7C-2.4,15.6,4,4.1,15,0.9
			S37.6,4,40.8,15.1s-3.2,22.6-14.2,25.8c-3.2,0.9-6.5,1.1-9.8,0.4C17,41.2,17.2,41,17.3,40.8"/>
		<path id="Path_3880" class="st5" d="M183.1,39.2c0.1,0.3,0.3,0.5,0.7,0.5c0.4,0,0.6-0.2,0.6-0.4c0-0.3-0.1-0.4-0.7-0.5
			c-0.7-0.2-0.9-0.4-0.9-0.8c0-0.4,0.3-0.7,0.9-0.7c0.5-0.1,0.9,0.3,1,0.7c0,0,0,0,0,0h-0.4c0-0.3-0.3-0.5-0.6-0.4
			c-0.3,0-0.5,0.1-0.5,0.4s0.1,0.3,0.6,0.4c0.8,0.2,0.9,0.5,0.9,0.8c0,0.4-0.3,0.8-1,0.8c-0.5,0.1-1-0.3-1-0.8c0,0,0,0,0,0
			L183.1,39.2z"/>
		<path id="Path_3881" class="st5" d="M187.5,38.8c0-0.5,0-1,0-1.3h0c-0.1,0.5-0.5,1.6-0.8,2.4h-0.4c-0.2-0.7-0.6-1.9-0.8-2.4h0
			c0,0.3,0,0.9,0,1.4v1.1h-0.4v-2.7h0.6c0.3,0.8,0.6,1.8,0.7,2.2h0c0.1-0.3,0.5-1.4,0.8-2.2h0.6v2.7h-0.4L187.5,38.8z"/>
	</g>
</g>
</svg>
